   <svg width="416px" height="482px" viewBox="0 0 416 482" version="1.1" xmlns="http://www.w3.org/2000/svg" xmlns:xlink="http://www.w3.org/1999/xlink">
    <!-- Generator: Sketch 57 (83077) - https://sketch.com -->
    <title>tm3</title>
    <desc>Created with Sketch.</desc>
    <defs>
        <circle id="path-1" cx="155" cy="155" r="155"></circle>
        <mask id="mask-2" maskContentUnits="userSpaceOnUse" maskUnits="objectBoundingBox" x="0" y="0" width="310" height="310" fill="white">
            <use xlink:href="#path-1"></use>
        </mask>
        <polygon id="path-3" points="0 0.113372549 68.8264706 0.113372549 68.8264706 69.3131765 0 69.3131765"></polygon>
    </defs>
    <g id="Page-1" stroke="none" stroke-width="1" fill="none" fill-rule="evenodd">
        <g id="NS---Methodology" transform="translate(-193.000000, -1857.000000)">
            <g id="tm3" transform="translate(193.000000, 1857.000000)">
                <rect id="Rectangle" fill="#FFFFFF" x="0" y="0" width="416" height="482"></rect>
                <g id="Group-5" transform="translate(0.000000, 29.000000)">
                    <g id="circle-arrows">
                        <use id="Oval" stroke="#979797" mask="url(#mask-2)" stroke-width="4" stroke-dasharray="3,6" xlink:href="#path-1"></use>
                        <polygon id="Rectangle" fill="#8C8C8C" transform="translate(261.500000, 43.500000) rotate(-180.000000) translate(-261.500000, -43.500000) " points="253 35 270 35 260 42 253 52"></polygon>
                        <polygon id="Rectangle" fill="#8C8C8C" transform="translate(259.500000, 267.500000) scale(-1, 1) rotate(-180.000000) translate(-259.500000, -267.500000) " points="251 259 268 259 258 266 251 276"></polygon>
                        <polygon id="Rectangle" fill="#8C8C8C" transform="translate(62.500000, 278.500000) scale(-1, -1) rotate(-185.000000) translate(-62.500000, -278.500000) " points="54 270 71 270 61 277 54 287"></polygon>
                        <polygon id="Rectangle" fill="#8C8C8C" transform="translate(43.500000, 48.500000) scale(1, -1) rotate(-180.000000) translate(-43.500000, -48.500000) " points="35 40 52 40 42 47 35 57"></polygon>
                    </g>
                    <g id="Group-28">
                        <g id="Group-27">
                            <g id="Group-10">
                                <rect id="Rectangle" fill="#FFFFFF" x="165" y="0" width="83" height="117"></rect>
                                <rect id="Rectangle" fill="#FFFFFF" x="302" y="136" width="89" height="127"></rect>
                                <rect id="Rectangle" fill="#FFFFFF" x="165" y="297" width="89" height="127"></rect>
                                <rect id="Rectangle" fill="#FFFFFF" x="17" y="139" width="89" height="127"></rect>
                                <g id="Group-19" transform="translate(170.000000, 0.000000)">
                                    <g id="Think-Icon" transform="translate(10.000000, 0.000000)">
                                        <path d="M55,27.1984548 C55,11.8459529 42.0713595,-0.578589073 26.4142899,0.0208145535 C12.1282902,0.566266458 0.553169887,12.0250726 0.0200979188,26.1539494 C-0.324863262,35.1692821 3.79712122,43.2690541 10.3612554,48.4548935 C11.9939254,49.7502744 14.4179769,48.5876148 14.4179769,46.5169477 C14.4179769,45.7562284 14.0587566,45.0451447 13.4598733,44.5714486 C8.26022788,40.4516952 4.9367545,34.1069727 4.99817843,27.0047681 C5.0996376,15.3199042 14.4722713,5.59780401 26.2689565,4.97681969 C39.2337933,4.29109331 50.0032729,14.5230373 50.0032729,27.1984548 C50.0032729,34.2218899 46.6940587,40.4910799 41.5377391,44.5714486 C40.9394042,45.0489213 40.5801839,45.7562284 40.5801839,46.5169477 C40.5801839,48.5838381 43.0003964,49.7502744 44.6369054,48.4581306 C50.950408,43.4697545 55,35.7935035 55,27.1984548" id="Fill-1" fill="#8C8C8C"></path>
                                        <path d="M27.4981393,48.8335083 C25.605529,48.8335083 23.7660819,48.5706715 22.0143541,48.0833517 C20.4880383,47.6592031 19,48.9085239 19,50.5893258 C19,51.763631 19.738437,52.7952373 20.8043594,53.0919158 C22.9431154,53.6852727 25.1871345,54 27.4981393,54 C29.8123339,54 32.0568846,53.6852727 34.1956406,53.0919158 C35.2610314,52.7952373 36,51.763631 36,50.5893258 C36,48.9085239 34.5082403,47.6592031 32.9856459,48.0833517 C31.2333865,48.5706715 29.3939394,48.8335083 27.4981393,48.8335083" id="Fill-4" fill="#FF4051"></path>
                                        <path d="M27.4981393,56.8330384 C25.605529,56.8330384 23.7660819,56.5742957 22.0143541,56.0833047 C20.4880383,55.6593952 19,56.9080118 19,58.5878662 C19,59.7615094 19.738437,60.7925342 20.8043594,61.0890454 C22.9431154,61.6815041 25.1871345,62 27.4981393,62 C29.8123339,62 32.0568846,61.6815041 34.1956406,61.0890454 C35.2610314,60.7925342 36,59.7615094 36,58.5878662 C36,56.9080118 34.5082403,55.6593952 32.9856459,56.0833047 C31.2333865,56.5742957 29.3939394,56.8330384 27.4981393,56.8330384" id="Fill-6" fill="#FF4051"></path>
                                        <path d="M27.2893723,64.1832136 C26.4046008,64.1832136 25.5297179,64.1275099 24.6725304,64.0187302 C23.2537733,63.8405838 22,64.9557071 22,66.4061032 C22,67.6263278 22.902467,68.6463346 24.0937858,68.7966292 C25.1440616,68.9295822 26.2115124,69 27.2893723,69 C28.1538462,69 29.0073904,68.954281 29.8479234,68.8707256 C31.0704694,68.7482827 32,67.7172403 32,66.472317 C32,65.0497727 30.7946289,63.9378023 29.3966899,64.0781124 C28.7044863,64.1485302 28.0023941,64.1832136 27.2893723,64.1832136" id="Fill-8" fill="#FF4051"></path>
                                    </g>
                                    <text id="think" font-family="Roboto-Light, Roboto" font-size="28" font-weight="300" fill="#1F1F1F">
                                        <tspan x="7.63378906" y="110">think</tspan>
                                    </text>
                                </g>
                                <g id="Group-17" transform="translate(309.000000, 143.000000)">
                                    <g id="Group-16" transform="translate(3.000000, 0.000000)">
                                        <g id="Group-8">
                                            <path d="M48.1536863,13.8556765 C49.5845686,14.8281275 50.9461373,15.941951 52.2178039,17.2108725 C53.4894706,18.4804804 54.6060392,19.8406765 55.5826078,21.2695 L55.5826078,21.2695 L38.8546667,38.2053824 C38.127902,38.9451863 37.2336863,39.4976373 36.2481961,39.8078333 L36.2481961,39.8078333 L28.638098,42.254402 C27.9257451,42.4829314 27.2538824,41.8117549 27.4762353,41.0904804 L27.4762353,41.0904804 L29.8507451,33.4213627 C30.1595686,32.4310686 30.6996667,31.5272451 31.4312353,30.7922451 L31.4312353,30.7922451 Z M52.6771961,9.28680392 C53.8404314,8.10915686 55.7105294,8.04533333 56.9554314,9.1365098 C57.531902,9.63817647 58.0946471,10.1631765 58.6443529,10.7156275 C59.1974902,11.2632745 59.7252353,11.8253333 60.2282745,12.4004314 C61.3180784,13.6467059 61.2734706,15.531902 60.1102353,16.7047451 L60.1102353,16.7047451 L57.6046471,19.2384706 C56.6280784,17.8096471 55.5108235,16.4446471 54.2398431,15.1757255 C52.9681765,13.9109216 51.6066078,12.797098 50.1764118,11.8205294 L50.1764118,11.8205294 Z" id="Combined-Shape" fill="#EE8600"></path>
                                            <g id="Group-7" transform="translate(0.000000, 0.520196)" fill="#8C8C8C">
                                                <path d="M9.98097059,10.3683725 C-3.71363725,24.2276863 -3.30461765,46.9063137 11.1387157,60.2406275 C24.2568529,72.3609216 44.6440098,72.3334706 57.7298922,60.1857255 C68.0782255,50.5723922 71.1657745,36.169549 67.0117549,23.6978824 C66.2664608,21.4798431 63.4602843,20.8127843 61.8166569,22.4749412 C60.9855784,23.3149412 60.6952843,24.5516078 61.0672451,25.6743529 C64.3641078,35.516902 62.1392059,46.8335686 54.3788137,54.6900392 C43.4409706,65.7685686 25.5786176,65.8330784 14.5625392,54.8355294 C3.54234314,43.8386667 3.47508824,25.8754314 14.4218529,14.8010196 C22.1815588,6.94454902 33.4193039,4.63043137 43.2316569,7.87101961 C44.3489118,8.24092157 45.579402,7.93552941 46.4056765,7.09552941 C48.0493039,5.43337255 47.3726373,2.61690196 45.1614608,1.8915098 C33.1743039,-2.05731373 19.4529314,0.772882353 9.98097059,10.3683725" id="Fill-5"></path>
                                            </g>
                                        </g>
                                    </g>
                                    <text id="make" font-family="Roboto-Light, Roboto" font-size="28" font-weight="300" fill="#1F1F1F">
                                        <tspan x="3.64160156" y="110.434783">make</tspan>
                                    </text>
                                </g>
                                <g id="Group-15" transform="translate(150.000000, 299.000000)">
                                    <g id="Group-14" transform="translate(25.000000, 0.000000)">
                                        <g id="Group-6">
                                            <g id="Group-3" transform="translate(0.000000, 0.573039)">
                                                <mask id="mask-4" fill="white">
                                                    <use xlink:href="#path-3"></use>
                                                </mask>
                                                <g id="Clip-2"></g>
                                                <path d="M34.4132353,6.40376471 C18.8890196,6.40376471 6.25676471,19.1025882 6.25676471,34.7112157 C6.25676471,50.3232745 18.8890196,63.0227843 34.4132353,63.0227843 C49.9422549,63.0227843 62.5738235,50.3232745 62.5738235,34.7112157 C62.5738235,19.1025882 49.9422549,6.40376471 34.4132353,6.40376471 M34.4132353,69.3131765 C15.4377451,69.3131765 -0.00068627451,53.7875882 -0.00068627451,34.7112157 C-0.00068627451,15.6341569 15.4377451,0.113372549 34.4132353,0.113372549 C53.3928431,0.113372549 68.8264706,15.6341569 68.8264706,34.7112157 C68.8264706,53.7875882 53.3928431,69.3131765 34.4132353,69.3131765" id="Fill-1" fill="#8C8C8C" mask="url(#mask-4)"></path>
                                            </g>
                                            <path d="M30.5248039,39.1965 C28.3767647,37.0374804 28.3767647,33.5313039 30.5248039,31.376402 C32.6721569,29.2173824 36.1598039,29.2173824 38.3030392,31.376402 C40.4503922,33.5313039 40.4503922,37.041598 38.3030392,39.1965 C36.1598039,41.3520882 32.6721569,41.3520882 30.5248039,39.1965 M21.6341176,49.7328725 L37.5481373,41.3836569 C38.8156863,40.716598 39.8512745,39.671402 40.5052941,38.3976765 L48.727549,22.3745392 C49.2367647,21.3842451 48.1785294,20.3246373 47.1978431,20.8407157 L31.2783333,29.1899314 C30.0114706,29.8569902 28.9806863,30.8973824 28.3273529,32.176598 L20.0996078,48.1983627 C19.5951961,49.1852255 20.6479412,50.2441471 21.6341176,49.7328725" id="Fill-4" fill="#84BF6E"></path>
                                        </g>
                                    </g>
                                    <text id="market" font-family="Roboto-Light, Roboto" font-size="28" font-weight="300" fill="#1F1F1F">
                                        <tspan x="13.4335938" y="111.434783">market</tspan>
                                    </text>
                                </g>
                                <g id="Group-9" transform="translate(0.000000, 143.000000)">
                                    <g id="Group-4" transform="translate(26.000000, 0.000000)">
                                        <g id="Group-12">
                                            <g id="Group-3" transform="translate(0.000000, 0.441961)" fill="#8C8C8C">
                                                <path d="M62.8591765,54.2759412 C73.7839804,38.1251569 69.242902,15.9118235 52.6199608,5.46260784 C37.4457451,-4.06905882 17.3214314,-0.202588235 6.7102549,14.2778039 C-0.0564117647,23.5171176 -1.55866667,34.9477059 1.54192157,45.0503529 C2.31398039,47.565549 5.64790196,48.0582941 7.12339216,45.885549 C7.66280392,45.0819216 7.7952549,44.0827059 7.51731373,43.155549 C5.06113725,35.1439804 6.14201961,26.1194706 11.2595686,18.6967255 C19.6726078,6.47623529 36.2921176,2.88358824 48.9470196,10.5753529 C62.8447647,19.025451 66.7050588,37.4086863 57.6826078,50.7381961 C52.687902,58.1286863 44.8012353,62.3787843 36.5645686,63.0266275 C35.6065294,63.1000588 34.7349608,63.5928039 34.1934902,64.3916275 C32.7186863,66.5691765 34.3931961,69.5043725 37.0051569,69.3039804 C47.0851569,68.523 56.743098,63.3148627 62.8591765,54.2759412" id="Fill-1"></path>
                                            </g>
                                            <path d="M42.1998431,48.644098 C43.9484706,48.644098 45.3601373,50.0681176 45.3601373,51.821549 C45.3601373,53.579098 43.9484706,55.0031176 42.1998431,55.0031176 L29.4406275,55.0031176 C27.6968039,55.0031176 26.2810196,53.579098 26.2810196,51.821549 C26.2810196,50.0681176 27.6968039,48.644098 29.4406275,48.644098 L42.1998431,48.644098 Z M42.1998431,38.1747059 C43.9484706,38.1747059 45.3601373,39.5987255 45.3601373,41.3562745 C45.3601373,43.1097059 43.9484706,44.5337255 42.1998431,44.5337255 L35.3343529,44.5337255 C33.5905294,44.5337255 32.1747451,43.1097059 32.1747451,41.3562745 C32.1747451,39.5987255 33.5905294,38.1747059 35.3343529,38.1747059 L42.1998431,38.1747059 Z M42.1998431,27.7049706 C43.9484706,27.7049706 45.3601373,29.1289902 45.3601373,30.8865392 C45.3601373,32.6399706 43.9484706,34.0639902 42.1998431,34.0639902 L29.4406275,34.0639902 C27.6968039,34.0639902 26.2810196,32.6399706 26.2810196,30.8865392 C26.2810196,29.1289902 27.6968039,27.7049706 29.4406275,27.7049706 L42.1998431,27.7049706 Z M42.1998431,17.2359216 C43.9484706,17.2359216 45.3601373,18.6599412 45.3601373,20.4174902 C45.3601373,22.1709216 43.9484706,23.5949412 42.1998431,23.5949412 L35.3343529,23.5949412 C33.5905294,23.5949412 32.1747451,22.1709216 32.1747451,20.4174902 C32.1747451,18.6599412 33.5905294,17.2359216 35.3343529,17.2359216 L42.1998431,17.2359216 Z" id="Combined-Shape" fill="#00CCFF"></path>
                                        </g>
                                    </g>
                                    <text id="measure" font-family="Roboto-Light, Roboto" font-size="28" font-weight="300" fill="#1F1F1F">
                                        <tspan x="6.76953125" y="110">measure</tspan>
                                    </text>
                                </g>
                            </g>
                        </g>
                    </g>
                </g>
            </g>
        </g>
    </g>
</svg>
